<svg xmlns="http://www.w3.org/2000/svg" width="256" height="256" viewBox="0 0 100 100"><rect width="100" height="100" rx="20" fill="#161616"></rect><path d="M41.81 70.94L41.81 43.46L41.63 43.46L38.57 49.58L30.41 64.40L22.43 49.64L19.25 43.04L19.07 43.04L19.07 70.94L10.49 70.94L10.49 29.06L20.15 29.06L30.41 48.68L30.53 48.68L40.67 29.06L50.39 29.06L50.39 70.94L41.81 70.94ZM73.19 71.66L73.19 71.66Q67.67 71.66 63.83 69.77Q59.99 67.88 57.29 64.88L57.29 64.88L63.29 58.82Q67.55 63.62 73.79 63.62L73.79 63.62Q77.15 63.62 78.77 62.24Q80.39 60.86 80.39 58.58L80.39 58.58Q80.39 56.84 79.43 55.67Q78.47 54.50 75.53 54.08L75.53 54.08L71.39 53.54Q64.73 52.70 61.64 49.52Q58.55 46.34 58.55 41.06L58.55 41.06Q58.55 38.24 59.63 35.90Q60.71 33.56 62.72 31.88Q64.73 30.20 67.64 29.27Q70.55 28.34 74.27 28.34L74.27 28.34Q79.01 28.34 82.61 29.84Q86.21 31.34 88.79 34.22L88.79 34.22L82.73 40.34Q81.23 38.60 79.10 37.49Q76.97 36.38 73.73 36.38L73.73 36.38Q70.67 36.38 69.17 37.46Q67.67 38.54 67.67 40.46L67.67 40.46Q67.67 42.62 68.84 43.58Q70.01 44.54 72.65 44.96L72.65 44.96L76.79 45.62Q83.27 46.64 86.39 49.61Q89.51 52.58 89.51 58.04L89.51 58.04Q89.51 61.04 88.43 63.56Q87.35 66.08 85.28 67.88Q83.21 69.68 80.15 70.67Q77.09 71.66 73.19 71.66Z" fill="#fff"></path></svg>